<svg xmlns="http://www.w3.org/2000/svg" version="1.1" id="Layer_1" viewBox="0 0 219 219" width="219" height="219"><metadata><rdf:RDF xmlns:rdf="http://www.w3.org/1999/02/22-rdf-syntax-ns#" xmlns:dc="http://purl.org/dc/elements/1.1/"><rdf:Description><dc:creator>RealFaviconGenerator</dc:creator><dc:source>https://realfavicongenerator.net</dc:source></rdf:Description></rdf:RDF></metadata><defs>
    <style>
      .st0 {
        fill: #426eb5;
      }

      .st1 {
        fill: #fff;
      }
    </style>
  </defs><circle class="st0" cx="109.5" cy="109.5" r="109.5"></circle><g>
    <path class="st1" d="M167.28,94.85c1.57-1.41,2.3-2.96,2.3-4.87,0-.9-.2-1.76-.59-2.57-.4-.81-.95-1.54-1.63-2.14-.68-.61-1.48-1.1-2.39-1.46-1.74-.68-3.99-.69-5.75,0-.91.35-1.72.83-2.39,1.43-.25.22-.47.46-.68.71l-8.78,29.32,19.92-20.42h-.01Z"></path>
    <path class="st1" d="M149.87,123.49c-.66,0-1.29-.11-1.86-.33-.58-.22-1.09-.53-1.53-.94-.35-.33-.63-.71-.85-1.12l-2.21,7.39-21.45-71.88c-.92-2.64-2.61-4.71-5.03-6.18-4.65-2.81-10.99-2.68-15.39.26-2.41,1.61-3.98,3.68-4.66,6.15l-21.3,71.62-21.47-71.97c-.65-1.66-1.68-3.19-3.09-4.57-2.55-2.37-5.68-3.58-9.29-3.58s-6.74,1.22-9.29,3.59c-2.56,2.37-3.85,5.28-3.85,8.65,0,1.28.22,2.73.66,4.3l33.4,112.24c.82,2.23,2.06,4.14,3.55,5.53,2.5,2.48,5.66,3.74,9.38,3.74,3.08,0,5.83-.93,8.17-2.75,2.19-1.7,3.79-3.94,4.92-6.89l20.85-70.18,20.96,70.62c.82,2.09,2.03,3.92,3.57,5.42,2.45,2.51,5.59,3.78,9.34,3.78,3.08,0,5.83-.93,8.17-2.75,2.19-1.71,3.79-3.95,4.92-6.89l15.79-53.25h-22.42.01Z"></path>
    <path class="st1" d="M186.62,51.95c-2.53-2.39-5.65-3.6-9.27-3.6s-6.75,1.21-9.29,3.58c-1.51,1.41-2.55,2.98-3.18,4.83l-5.44,18.19c3.14-.43,6.47-.11,9.27,1.01,2.04.81,3.85,1.92,5.39,3.3,1.53,1.38,2.77,3.01,3.66,4.84.9,1.85,1.36,3.83,1.36,5.88s-.43,4.06-1.29,5.87c-.85,1.8-2.09,3.45-3.69,4.91l-13.61,14.18h13.8c.17,0,.32.02.48.04l14.84-50.03c.43-1.47.67-2.89.75-4.37,0-3.36-1.27-6.26-3.78-8.63h0Z"></path>
  </g></svg>